<svg width="600" height="157" viewBox="0 0 600 157" fill="none" xmlns="http://www.w3.org/2000/svg">
<g clip-path="url(#clip0_20_33)">
<path d="M77.2166 41.6519L76.7808 99.8735H75.9092L74.8189 41.6519L73.2929 0.00427942H54.9881L53.2441 41.6519L52.3725 99.8727H51.501L50.6294 41.6519L49.322 0.00427942H0V18.1005H5.88396V156.132H25.279V18.1005H30.5651L37.116 156.132H57.6028L59.5639 111.212L61.0892 56.261H61.9623L63.2697 111.212L65.4486 156.132H85.716L93.1245 0.00427942H78.7418L77.2166 41.6519ZM95.7354 156.132H124.504V138.031H114.696V80.6839H122.977V62.5815H114.696V18.1005H124.502V0.00427942H95.7338L95.7354 156.132ZM151.308 35.1088L153.269 74.1424H152.398L149.564 35.7632L146.949 0.00427942H127.989V156.132H143.245V120.807L140.846 76.5392H141.718L145.641 119.061L148.91 156.131H166.562V0.00427942H151.308V35.1088ZM222.636 30.7485L221.764 75.8871H220.893L220.021 30.7485L218.714 0.00427942H169.828V18.1005H175.712V156.132H195.108V18.1005H200.381L209.342 112.519V156.131H228.738V112.519L239.636 0.00427942H224.163L222.636 30.7485ZM287.94 0.00427942H257.867C255.252 0.00427942 253.292 2.18479 253.292 5.01976V151.117C253.292 153.952 255.254 156.132 257.867 156.132H287.94C290.556 156.132 292.515 153.951 292.515 151.117V5.01743C292.515 2.18169 290.554 0.00195312 287.94 0.00195312M274.646 140.65C274.646 141.959 273.993 142.395 272.903 142.395C271.814 142.395 271.16 141.959 271.16 140.65V15.2663C271.16 13.9566 271.814 13.7395 272.903 13.7395C273.993 13.7395 274.646 14.1753 274.646 15.4842V140.65ZM320.847 35.1088L322.812 74.1424H321.94L319.107 35.7632L316.488 0.00427942H297.528V156.132H312.784V120.807L310.385 76.5392H311.258L315.181 119.061L318.45 156.131H336.102V0.00427942H320.847V35.1088ZM341.328 156.132H370.096V138.031H360.289V80.6839H368.57V62.5815H360.289V18.1005H370.096V0.00427942H341.328V156.132ZM420.434 0.00427942H385.565V156.132H403.871V116.009H420.434C423.049 116.009 425.009 113.828 425.009 110.994V5.01743C425.009 2.18169 423.047 0.00195312 420.434 0.00195312M407.357 100.309C407.357 101.182 406.922 101.836 406.05 101.836H403.871V14.1753H406.05C406.922 14.1753 407.357 14.8297 407.357 15.7021V100.309ZM429.8 156.132H448.76V0.00427942H429.8V156.132ZM473.167 0.00427942H453.988V156.132H481.012V138.47H473.167V0.00427942ZM519.15 0.00427942H489.073C486.458 0.00427942 484.498 2.18479 484.498 5.01976V151.117C484.498 153.952 486.46 156.132 489.073 156.132H519.15C521.767 156.132 523.725 153.951 523.725 151.117V5.01743C523.725 2.18169 521.764 0.00427942 519.15 0.00427942ZM505.853 140.65C505.853 141.959 505.2 142.395 504.11 142.395C503.021 142.395 502.367 141.959 502.367 140.65V15.2663C502.367 13.9566 503.021 13.7395 504.11 13.7395C505.2 13.7395 505.853 14.1753 505.853 15.4842V140.65ZM526.773 18.1005H532.658V156.132H552.053V18.1005H558.156V0.00427942H526.773V18.1005ZM599.996 61.713V5.01743C599.996 2.18169 598.035 0.00195312 595.421 0.00195312H565.567C562.952 0.00195312 560.992 2.18246 560.992 5.01743V75.8871C560.992 78.2855 561.863 80.0302 563.608 80.9018L579.944 89.188C581.687 90.0604 582.123 91.1499 582.123 92.8946V141.52C582.123 142.828 581.687 143.264 580.598 143.264C579.29 143.264 578.855 142.828 578.855 141.52V94.858L560.984 94.4214V151.117C560.984 153.952 562.947 156.132 565.559 156.132H595.413C598.029 156.132 599.988 153.951 599.988 151.117V80.466C600.068 79.1075 599.737 77.7565 599.037 76.5895C598.337 75.4224 597.301 74.4936 596.065 73.9245L581.028 66.5098C579.503 65.8561 578.849 64.9838 578.849 62.8033V14.3932C578.849 13.3029 579.285 12.8663 580.375 12.8663C581.682 12.8663 582.118 13.3029 582.118 14.3932V61.713H599.996Z" fill="#231F20"/>
</g>
<defs>
<clipPath id="clip0_20_33">
<rect width="600" height="157" fill="white"/>
</clipPath>
</defs>
</svg>
