<svg width="400" height="131" viewBox="0 0 400 131" fill="none" xmlns="http://www.w3.org/2000/svg">
<path d="M51.4777 34.7082L51.1872 83.2263H50.6061L49.8793 34.7082L48.8619 0.00193858H36.6587L35.4961 34.7082L34.915 83.2256H34.334L33.7529 34.7082L32.8813 0.00193858H0V15.0821H3.92264V130.109H16.8527V15.0821H20.3768L24.744 130.108H38.4019L39.7093 92.6749L40.7261 46.8825H41.3082L42.1798 92.6749L43.6324 130.108H57.144L62.083 0.00193858H52.4945L51.4777 34.7082ZM63.8236 130.109H83.0026V115.024H76.4641V67.235H81.9847V52.1496H76.4641V15.0821H83.0015V0.00193858H63.8226L63.8236 130.109ZM100.872 29.2557L102.179 61.7837H101.598L99.7095 29.8011L97.9658 0.00193858H85.3257V130.109H95.4968V100.671L93.8974 63.7811H94.4784L97.0942 99.2156L99.2731 130.107H111.042V0.00193858H100.872V29.2557ZM148.424 25.6221L147.843 63.2376H147.262L146.681 25.6221L145.809 0.00193858H113.218V15.0821H117.142V130.109H130.072V15.0821H133.587L139.561 93.7644V130.107H152.492V93.7644L159.757 0.00193858H149.442L148.424 25.6221ZM191.96 0.00193858H171.911C170.168 0.00193858 168.861 1.81903 168.861 4.18151V125.929C168.861 128.292 170.169 130.108 171.911 130.108H191.96C193.704 130.108 195.01 128.291 195.01 125.929V4.17957C195.01 1.81644 193.703 0 191.96 0M183.098 117.207C183.098 118.298 182.662 118.661 181.936 118.661C181.209 118.661 180.773 118.298 180.773 117.207V12.7203C180.773 11.6289 181.209 11.4479 181.936 11.4479C182.662 11.4479 183.098 11.8111 183.098 12.9019V117.207ZM213.898 29.2557L215.208 61.7837H214.627L212.738 29.8011L210.992 0.00193858H198.352V130.109H208.523V100.671L206.924 63.7811H207.505L210.121 99.2156L212.3 130.107H224.068V0.00193858H213.898V29.2557ZM227.552 130.109H246.731V115.024H240.193V67.235H245.713V52.1496H240.193V15.0821H246.731V0.00193858H227.552V130.109ZM280.289 0.00193858H257.043V130.109H269.247V96.6722H280.289C282.033 96.6722 283.339 94.8551 283.339 92.4933V4.17957C283.339 1.81644 282.032 0 280.289 0M271.572 83.5894C271.572 84.3164 271.281 84.8618 270.7 84.8618H269.247V11.8111H270.7C271.281 11.8111 271.572 12.3565 271.572 13.0834V83.5894ZM286.533 130.109H299.173V0.00193858H286.533V130.109ZM315.445 0.00193858H302.659V130.109H320.674V115.39H315.445V0.00193858ZM346.1 0.00193858H326.049C324.306 0.00193858 322.999 1.81903 322.999 4.18151V125.929C322.999 128.292 324.307 130.108 326.049 130.108H346.1C347.845 130.108 349.15 128.291 349.15 125.929V4.17957C349.15 1.81644 347.842 0.00193858 346.1 0.00193858ZM337.236 117.207C337.236 118.298 336.8 118.661 336.073 118.661C335.347 118.661 334.911 118.298 334.911 117.207V12.7203C334.911 11.6289 335.347 11.4479 336.073 11.4479C336.8 11.4479 337.236 11.8111 337.236 12.9019V117.207ZM351.182 15.0821H355.105V130.109H368.036V15.0821H372.104V0.00193858H351.182V15.0821ZM399.997 51.4259V4.17957C399.997 1.81644 398.69 0 396.947 0H377.045C375.301 0 373.995 1.81709 373.995 4.17957V63.2376C373.995 65.2363 374.576 66.6902 375.739 67.4165L386.629 74.3217C387.792 75.0487 388.082 75.9566 388.082 77.4105V117.932C388.082 119.022 387.792 119.385 387.065 119.385C386.194 119.385 385.903 119.022 385.903 117.932V79.0467L373.989 78.6829V125.929C373.989 128.292 375.298 130.108 377.039 130.108H396.942C398.686 130.108 399.992 128.291 399.992 125.929V67.0534C400.046 65.9213 399.825 64.7955 399.358 63.8229C398.891 62.8504 398.201 62.0764 397.377 61.6021L387.352 55.4232C386.335 54.8785 385.9 54.1515 385.9 52.3344V11.9927C385.9 11.0841 386.19 10.7203 386.916 10.7203C387.788 10.7203 388.078 11.0841 388.078 11.9927V51.4259H399.997Z" fill="#231F20"/>
</svg>
