<svg width="500" height="131" viewBox="0 0 500 131" fill="none" xmlns="http://www.w3.org/2000/svg">
<path d="M64.3471 34.7082L63.984 83.2263H63.2576L62.3491 34.7082L61.0774 0.00193858H45.8234L44.3701 34.7082L43.6438 83.2256H42.9175L42.1911 34.7082L41.1017 0.00193858H0V15.0821H4.9033V130.109H21.0658V15.0821H25.4709L30.93 130.108H48.0024L49.6366 92.6749L50.9076 46.8825H51.6352L52.7247 92.6749L54.5405 130.108H71.43L77.6037 0.00193858H65.6182L64.3471 34.7082ZM79.7795 130.109H103.753V115.024H95.5802V67.235H102.481V52.1496H95.5802V15.0821H103.752V0.00193858H79.7782L79.7795 130.109ZM126.09 29.2557L127.724 61.7837H126.998L124.637 29.8011L122.457 0.00193858H106.657V130.109H119.371V100.671L117.372 63.7811H118.098L121.368 99.2156L124.091 130.107H138.802V0.00193858H126.09V29.2557ZM185.53 25.6221L184.804 63.2376H184.077L183.351 25.6221L182.262 0.00193858H141.523V15.0821H146.427V130.109H162.59V15.0821H166.984L174.452 93.7644V130.107H190.615V93.7644L199.697 0.00193858H186.802L185.53 25.6221ZM239.95 0.00193858H214.889C212.71 0.00193858 211.077 1.81903 211.077 4.18151V125.929C211.077 128.292 212.711 130.108 214.889 130.108H239.95C242.13 130.108 243.763 128.291 243.763 125.929V4.17957C243.763 1.81644 242.129 0 239.95 0M228.872 117.207C228.872 118.298 228.327 118.661 227.419 118.661C226.512 118.661 225.967 118.298 225.967 117.207V12.7203C225.967 11.6289 226.512 11.4479 227.419 11.4479C228.327 11.4479 228.872 11.8111 228.872 12.9019V117.207ZM267.372 29.2557L269.01 61.7837H268.283L265.922 29.8011L263.74 0.00193858H247.94V130.109H260.654V100.671L258.654 63.7811H259.381L262.651 99.2156L265.375 130.107H280.085V0.00193858H267.372V29.2557ZM284.44 130.109H308.414V115.024H300.241V67.235H307.141V52.1496H300.241V15.0821H308.414V0.00193858H284.44V130.109ZM350.361 0.00193858H321.304V130.109H336.559V96.6722H350.361C352.541 96.6722 354.174 94.8551 354.174 92.4933V4.17957C354.174 1.81644 352.54 0 350.361 0M339.465 83.5894C339.465 84.3164 339.101 84.8618 338.375 84.8618H336.559V11.8111H338.375C339.101 11.8111 339.465 12.3565 339.465 13.0834V83.5894ZM358.167 130.109H373.967V0.00193858H358.167V130.109ZM394.306 0.00193858H378.323V130.109H400.843V115.39H394.306V0.00193858ZM432.625 0.00193858H407.561C405.382 0.00193858 403.748 1.81903 403.748 4.18151V125.929C403.748 128.292 405.383 130.108 407.561 130.108H432.625C434.806 130.108 436.438 128.291 436.438 125.929V4.17957C436.438 1.81644 434.803 0.00193858 432.625 0.00193858ZM421.544 117.207C421.544 118.298 421 118.661 420.092 118.661C419.184 118.661 418.639 118.298 418.639 117.207V12.7203C418.639 11.6289 419.184 11.4479 420.092 11.4479C421 11.4479 421.544 11.8111 421.544 12.9019V117.207ZM438.977 15.0821H443.881V130.109H460.045V15.0821H465.13V0.00193858H438.977V15.0821ZM499.997 51.4259V4.17957C499.997 1.81644 498.362 0 496.184 0H471.306C469.127 0 467.493 1.81709 467.493 4.17957V63.2376C467.493 65.2363 468.22 66.6902 469.673 67.4165L483.287 74.3217C484.739 75.0487 485.103 75.9566 485.103 77.4105V117.932C485.103 119.022 484.739 119.385 483.832 119.385C482.742 119.385 482.379 119.022 482.379 117.932V79.0467L467.487 78.6829V125.929C467.487 128.292 469.122 130.108 471.299 130.108H496.178C498.357 130.108 499.99 128.291 499.99 125.929V67.0534C500.057 65.9213 499.781 64.7955 499.197 63.8229C498.614 62.8504 497.751 62.0764 496.721 61.6021L484.19 55.4232C482.919 54.8785 482.374 54.1515 482.374 52.3344V11.9927C482.374 11.0841 482.738 10.7203 483.645 10.7203C484.735 10.7203 485.098 11.0841 485.098 11.9927V51.4259H499.997Z" fill="#231F20"/>
</svg>
