<svg width="80" height="80" viewBox="0 0 80 80" fill="none" xmlns="http://www.w3.org/2000/svg">
<g clip-path="url(#clip0_20_49)">
<path d="M40.0022 0C32.091 0 24.3574 2.34596 17.7794 6.74121C11.2014 11.1365 6.07454 17.3836 3.04703 24.6927C0.0195255 32.0017 -0.772604 40.0444 0.770805 47.8036C2.31421 55.5628 6.12384 62.6902 11.7179 68.2843C17.312 73.8784 24.4394 77.688 32.1986 79.2314C39.9579 80.7748 48.0005 79.9827 55.3096 76.9552C62.6186 73.9277 68.8658 68.8008 73.261 62.2228C77.6563 55.6448 80.0022 47.9113 80.0022 40C80.0022 29.3913 75.7879 19.2172 68.2865 11.7157C60.785 4.21427 50.6109 0 40.0022 0ZM19.7601 65.0295C19.7601 65.4166 19.6482 65.7955 19.4378 66.1206C19.2274 66.4456 18.9275 66.7028 18.5743 66.8613C18.221 67.0198 17.8295 67.0728 17.4469 67.014C17.0642 66.9551 16.7067 66.7868 16.4175 66.5295C15.901 66.0695 15.3961 65.5928 14.9027 65.0995C8.24618 58.4427 4.50658 49.4142 4.50658 40.0003C4.50658 30.5863 8.24618 21.5579 14.9027 14.9011C15.3961 14.4081 15.901 13.9314 16.4175 13.471C16.7066 13.2135 17.0641 13.045 17.4468 12.986C17.8295 12.927 18.2211 12.9799 18.5744 13.1384C18.9277 13.2969 19.2276 13.5542 19.438 13.8792C19.6483 14.2043 19.7602 14.5833 19.7601 14.9705V65.0295ZM65.1012 65.0995C61.8128 68.4058 57.9013 71.0272 53.593 72.8117C49.2848 74.5962 44.6654 75.5085 40.0022 75.4958C37.4505 75.4972 34.906 75.2255 32.4122 74.6853C31.9643 74.5881 31.5633 74.3403 31.2759 73.9833C30.9886 73.6262 30.8324 73.1815 30.8333 72.7232V7.27737C30.833 6.81923 30.9895 6.37481 31.2768 6.01789C31.564 5.66097 31.9646 5.41304 32.4122 5.31526C34.906 4.77486 37.4505 4.50296 40.0022 4.50421C44.6654 4.49149 49.2848 5.40379 53.593 7.18832C57.9013 8.97285 61.8128 11.5942 65.1012 14.9005C65.7601 15.5595 66.3896 16.2393 66.9896 16.94C67.2396 17.2316 67.4007 17.5887 67.4537 17.9691C67.5068 18.3495 67.4496 18.7372 67.2888 19.086C67.1281 19.4349 66.8707 19.7303 66.5471 19.9371C66.2235 20.144 65.8473 20.2537 65.4633 20.2532H57.6696L42.5812 59.5626H55.6406L68.6649 25.5026C68.8064 25.1325 69.0543 24.8125 69.3773 24.583C69.7004 24.3535 70.0842 24.2247 70.4803 24.213C70.8764 24.2012 71.2671 24.3069 71.6033 24.5169C71.9394 24.7268 72.2058 25.0315 72.3691 25.3926C75.3254 31.9678 76.2134 39.2863 74.9152 46.3778C73.617 53.4692 70.1941 59.9985 65.1001 65.1L65.1012 65.0995Z" fill="white"/>
<path d="M45.9184 37.9531H34.0815V42.0468H45.9184V37.9531Z" fill="white"/>
</g>
<defs>
<clipPath id="clip0_20_49">
<rect width="80" height="80" fill="white"/>
</clipPath>
</defs>
</svg>
