<svg width="50" height="50" viewBox="0 0 50 50" fill="none" xmlns="http://www.w3.org/2000/svg">
<g clip-path="url(#clip0_20_46)">
<path d="M25.0012 0C20.0567 0 15.2232 1.46622 11.112 4.21326C7.00075 6.96029 3.79643 10.8648 1.90424 15.4329C0.0120509 20.0011 -0.48303 25.0277 0.481601 29.8773C1.44623 34.7268 3.82725 39.1814 7.32356 42.6777C10.8199 46.174 15.2745 48.555 20.124 49.5196C24.9735 50.4843 30.0002 49.9892 34.5683 48.097C39.1365 46.2048 43.0409 43.0005 45.788 38.8893C48.535 34.778 50.0012 29.9445 50.0012 25C50.0012 18.3696 47.3673 12.0107 42.6789 7.32233C37.9905 2.63392 31.6316 0 25.0012 0ZM12.3499 40.6434C12.3499 40.8854 12.2799 41.1222 12.1485 41.3253C12.017 41.5285 11.8295 41.6893 11.6088 41.7883C11.388 41.8874 11.1433 41.9205 10.9041 41.8837C10.665 41.8469 10.4415 41.7418 10.2608 41.5809C9.93797 41.2934 9.62239 40.9955 9.31406 40.6872C5.15371 36.5267 2.81646 30.8839 2.81646 25.0002C2.81646 19.1164 5.15371 13.4737 9.31406 9.31316C9.62239 9.00504 9.93797 8.70712 10.2608 8.4194C10.4415 8.25842 10.6649 8.15315 10.9041 8.11626C11.1433 8.07937 11.388 8.11244 11.6088 8.21149C11.8296 8.31055 12.0171 8.47135 12.1486 8.67453C12.2801 8.8777 12.35 9.11457 12.3499 9.35658V40.6434ZM40.6881 40.6872C38.6328 42.7536 36.1881 44.392 33.4955 45.5073C30.8028 46.6226 27.9157 47.1928 25.0012 47.1849C23.4064 47.1858 21.8161 47.0159 20.2575 46.6783C19.9775 46.6176 19.7269 46.4627 19.5473 46.2396C19.3677 46.0164 19.2701 45.7384 19.2706 45.452V4.54835C19.2705 4.26202 19.3683 3.98425 19.5478 3.76118C19.7273 3.53811 19.9777 3.38315 20.2575 3.32204C21.8161 2.98429 23.4064 2.81435 25.0012 2.81513C27.9157 2.80718 30.8028 3.37737 33.4955 4.4927C36.1881 5.60803 38.6328 7.24635 40.6881 9.31283C41.0999 9.72467 41.4933 10.1496 41.8683 10.5875C42.0246 10.7697 42.1253 10.993 42.1584 11.2307C42.1916 11.4685 42.1558 11.7107 42.0554 11.9288C41.9549 12.1468 41.794 12.3314 41.5918 12.4607C41.3895 12.59 41.1544 12.6586 40.9144 12.6582H36.0433L26.6131 37.2266H34.7752L42.9154 15.9391C43.0038 15.7078 43.1588 15.5078 43.3607 15.3644C43.5626 15.2209 43.8025 15.1404 44.05 15.1331C44.2976 15.1257 44.5418 15.1918 44.7519 15.323C44.962 15.4542 45.1285 15.6447 45.2305 15.8704C47.0782 19.9799 47.6332 24.554 46.8219 28.9861C46.0105 33.4182 43.8711 37.4991 40.6874 40.6875L40.6881 40.6872Z" fill="white"/>
<path d="M28.6991 23.7207H21.301V26.2793H28.6991V23.7207Z" fill="white"/>
</g>
<defs>
<clipPath id="clip0_20_46">
<rect width="50" height="50" fill="white"/>
</clipPath>
</defs>
</svg>
