<svg width="100" height="100" viewBox="0 0 100 100" fill="none" xmlns="http://www.w3.org/2000/svg">
<g clip-path="url(#clip0_20_43)">
<path d="M50.0027 0C40.1136 0 30.4467 2.93244 22.2242 8.42652C14.0017 13.9206 7.59311 21.7295 3.80873 30.8658C0.0243459 40.0021 -0.965816 50.0555 0.963445 59.7545C2.89271 69.4536 7.65474 78.3627 14.6474 85.3553C21.64 92.348 30.5492 97.11 40.2482 99.0393C49.9473 100.969 60.0006 99.9784 69.1369 96.194C78.2732 92.4096 86.0821 86.001 91.5762 77.7785C97.0703 69.556 100.003 59.8891 100.003 50C100.003 36.7392 94.7349 24.0215 85.358 14.6447C75.9812 5.26783 63.2635 0 50.0027 0ZM24.7001 81.2868C24.7001 81.7708 24.5601 82.2444 24.2971 82.6507C24.0342 83.057 23.6593 83.3785 23.2178 83.5767C22.7762 83.7748 22.2868 83.8411 21.8085 83.7675C21.3302 83.6939 20.8833 83.4836 20.5218 83.1618C19.8762 82.5868 19.245 81.991 18.6284 81.3743C10.3077 73.0533 5.63317 61.7678 5.63317 50.0003C5.63317 38.2329 10.3077 26.9473 18.6284 18.6263C19.245 18.0101 19.8762 17.4142 20.5218 16.8388C20.8832 16.5168 21.33 16.3063 21.8084 16.2325C22.2868 16.1587 22.7763 16.2249 23.2179 16.423C23.6595 16.6211 24.0344 16.9427 24.2974 17.3491C24.5604 17.7554 24.7002 18.2291 24.7001 18.7132V81.2868ZM81.3764 81.3743C77.2659 85.5073 72.3765 88.7839 66.9912 91.0146C61.6059 93.2453 55.8317 94.3856 50.0027 94.3697C46.8131 94.3715 43.6325 94.0319 40.5152 93.3566C39.9553 93.2351 39.454 92.9254 39.0949 92.4791C38.7357 92.0328 38.5404 91.4768 38.5415 90.9039V9.09671C38.5412 8.52404 38.7369 7.96851 39.0959 7.52236C39.4549 7.07621 39.9557 6.7663 40.5152 6.64408C43.6325 5.96857 46.8131 5.6287 50.0027 5.63026C55.8317 5.61436 61.6059 6.75474 66.9912 8.9854C72.3765 11.2161 77.2659 14.4927 81.3764 18.6257C82.2001 19.4493 82.9869 20.2991 83.7369 21.175C84.0494 21.5395 84.2508 21.9859 84.3171 22.4614C84.3834 22.9369 84.3119 23.4215 84.111 23.8575C83.9101 24.2936 83.5883 24.6628 83.1838 24.9214C82.7793 25.18 82.3091 25.3171 81.829 25.3164H72.0869L53.2264 74.4533H69.5507L85.831 31.8783C86.0079 31.4156 86.3178 31.0156 86.7216 30.7287C87.1255 30.4418 87.6052 30.2809 88.1003 30.2662C88.5955 30.2515 89.0839 30.3837 89.504 30.6461C89.9242 30.9085 90.2572 31.2894 90.4613 31.7408C94.1567 39.9598 95.2667 49.1079 93.644 57.9722C92.0212 66.8365 87.7425 74.9981 81.3751 81.375L81.3764 81.3743Z" fill="white"/>
<path d="M57.3981 47.4414H42.6021V52.5585H57.3981V47.4414Z" fill="white"/>
</g>
<defs>
<clipPath id="clip0_20_43">
<rect width="100" height="100" fill="white"/>
</clipPath>
</defs>
</svg>
